<?xml version="1.0" encoding="utf-8"?>
<!-- Generator: Adobe Illustrator 18.1.0, SVG Export Plug-In . SVG Version: 6.00 Build 0)  -->
<svg version="1.1" id="Layer_1" xmlns="http://www.w3.org/2000/svg" xmlns:xlink="http://www.w3.org/1999/xlink" x="0px" y="0px"
	 viewBox="356.4 418 62 62" enable-background="new 356.4 418 62 62" xml:space="preserve">
<g>
	<g>
		<g>
			<path d="M387.6,479.7c-16.8,0-30.5-13.7-30.5-30.5c0-16.8,13.7-30.5,30.5-30.5c16.8,0,30.5,13.7,30.5,30.5
				C418.1,466,404.4,479.7,387.6,479.7z M387.6,420.9c-15.5,0-28.2,12.7-28.2,28.2c0,15.5,12.7,28.2,28.2,28.2s28.2-12.7,28.2-28.2
				C415.8,433.6,403.1,420.9,387.6,420.9z"/>
		</g>
		<g>
			<path d="M377.7,468.1c-0.3,0-0.5-0.1-0.8-0.3c-0.5-0.5-0.5-1.2-0.1-1.6c0.2-0.2,4.6-4.8,11.4-6.9c7-2.2,11.8-0.2,12.1-0.2
				c0.6,0.2,0.9,0.9,0.6,1.5c-0.2,0.6-0.9,0.9-1.5,0.6c-0.1,0-4.4-1.6-10.5,0.2c-6.3,1.9-10.4,6.2-10.4,6.3
				C378.3,468,378,468.1,377.7,468.1z"/>
		</g>
	</g>
	<g>
		<circle cx="375.3" cy="444.5" r="3.1"/>
	</g>
	<g>
		<circle cx="399.7" cy="444.5" r="3.1"/>
	</g>
</g>
</svg>
