<svg xmlns="http://www.w3.org/2000/svg" xmlns:xlink="http://www.w3.org/1999/xlink" version="1.1" id="Layer_1" x="0px" y="0px" viewBox="275.4 418.1 62 62" enable-background="new 275.4 418.1 62 62" xml:space="preserve">

  <g>
    <path d="M306.4 479.7c-16.8 0-30.5-13.7-30.5-30.5c0-16.8 13.7-30.5 30.5-30.5s30.5 13.7 30.5 30.5 C336.9 466 323.2 479.7 306.4 479.7z M306.4 420.9c-15.5 0-28.2 12.7-28.2 28.2s12.7 28.2 28.2 28.2s28.2-12.7 28.2-28.2 S321.9 420.9 306.4 420.9z"/>
  </g>
  <g>
    <path d="M306.4 464.7c-7.3 0-11.4-3.2-11.5-3.3c-0.5-0.4-0.6-1.2-0.2-1.6c0.4-0.5 1.2-0.6 1.6-0.2c0.1 0.1 3.7 2.9 10.1 2.9 c6.6 0 11.7-2.9 11.7-2.9c0.5-0.3 1.2-0.2 1.5 0.5c0.3 0.5 0.2 1.2-0.5 1.5C319 461.7 313.5 464.7 306.4 464.7z"/>
  </g>
  <g>
    <circle cx="294.2" cy="444.5" r="3.1"/>
  </g>
  <g>
    <circle cx="318.6" cy="444.5" r="3.1"/>
  </g>
</svg>
